<svg xmlns="http://www.w3.org/2000/svg" width="8.619" height="17.461" viewBox="0 0 8.619 17.461">
  <path id="Caminho_3953" data-name="Caminho 3953" d="M7.623-16.035a1.733,1.733,0,0,0-.4-1.2,3.569,3.569,0,0,0-1.349-.822A15.523,15.523,0,0,1,4.234-18.8a5.23,5.23,0,0,1-1.183-.854,3.433,3.433,0,0,1-.768-1.134,3.976,3.976,0,0,1-.275-1.552,3.54,3.54,0,0,1,.943-2.543,3.893,3.893,0,0,1,2.506-1.157v-1.965h1.4v1.992a3.6,3.6,0,0,1,2.419,1.354,4.617,4.617,0,0,1,.873,2.915H7.623a2.627,2.627,0,0,0-.432-1.648,1.4,1.4,0,0,0-1.157-.546,1.432,1.432,0,0,0-1.109.427,1.676,1.676,0,0,0-.393,1.18,1.6,1.6,0,0,0,.384,1.12,4.194,4.194,0,0,0,1.428.863,15.507,15.507,0,0,1,1.716.831,4.978,4.978,0,0,1,1.135.881,3.432,3.432,0,0,1,.707,1.12,4.027,4.027,0,0,1,.245,1.464,3.525,3.525,0,0,1-.926,2.534,3.967,3.967,0,0,1-2.55,1.148v1.827H5.282v-1.818A4.118,4.118,0,0,1,2.51-13.7a4.444,4.444,0,0,1-.982-3.016H4.051a2.525,2.525,0,0,0,.493,1.675,1.756,1.756,0,0,0,1.419.583,1.681,1.681,0,0,0,1.214-.427A1.521,1.521,0,0,0,7.623-16.035Z" transform="translate(-1.527 28.007)" fill="#b4b4b4"/>
</svg>
